# Tiled2Unity generated file. Do not modify by hand.
# Wavefront file for 'mapa1_mesh_0001.obj'

# Vertices (Count = 36)
v -1.6 -1.2 -0.1428571
v -3.2 -1.2 -0.1428571
v -3.2 0.4 -0.1428571
v -1.6 0.4 -0.1428571
v -0.8 -1.6 -0.2857143
v -2.4 -1.6 -0.2857143
v -2.4 0 -0.2857143
v -0.8 0 -0.2857143
v -2.4 -1.6 -0.2857143
v -4 -1.6 -0.2857143
v -4 0 -0.2857143
v -2.4 0 -0.2857143
v 0 -2 -0.4285714
v -1.6 -2 -0.4285714
v -1.6 -0.4 -0.4285714
v 0 -0.4 -0.4285714
v -1.6 -2 -0.4285714
v -3.2 -2 -0.4285714
v -3.2 -0.4 -0.4285714
v -1.6 -0.4 -0.4285714
v -3.2 -2 -0.4285714
v -4.8 -2 -0.4285714
v -4.8 -0.4 -0.4285714
v -3.2 -0.4 -0.4285714
v -0.8 -2.4 -0.5714286
v -2.4 -2.4 -0.5714286
v -2.4 -0.8 -0.5714286
v -0.8 -0.8 -0.5714286
v -2.4 -2.4 -0.5714286
v -4 -2.4 -0.5714286
v -4 -0.8 -0.5714286
v -2.4 -0.8 -0.5714286
v -1.6 -2.8 -0.7142857
v -3.2 -2.8 -0.7142857
v -3.2 -1.2 -0.7142857
v -1.6 -1.2 -0.7142857

# Texture cooridinates (Count = 4)
vt 0 0.8333333
vt 0.25 0.8333333
vt 0.25 1
vt 0 1

# Normal
vn 0 0 -1

# Mesh description
g mapa1_mesh_0001

# Faces
f 1/1/1 2/2/1 3/3/1 4/4/1
f 5/1/1 6/2/1 7/3/1 8/4/1
f 9/1/1 10/2/1 11/3/1 12/4/1
f 13/1/1 14/2/1 15/3/1 16/4/1
f 17/1/1 18/2/1 19/3/1 20/4/1
f 21/1/1 22/2/1 23/3/1 24/4/1
f 25/1/1 26/2/1 27/3/1 28/4/1
f 29/1/1 30/2/1 31/3/1 32/4/1
f 33/1/1 34/2/1 35/3/1 36/4/1

